# xmcd
#
# Track frame offsets:
#	150
#	15975
#	39900
#	58200
#	74700
#	92925
#	108975
#	124575
#	140625
#	156450
#	180375
#	198675
#	215175
#	233400
#	249450
#	265050
#
# Disc length: 3748 seconds
#
# Revision: 1
# Processed by: cddbd v1.5.2PL0 Copyright (c) Steve Scherf et al.
# Submitted via: audiograbber 1.83.01
#
DISCID=ea0ea210
DTITLE=Party Time Karaoke - SYB-1626
DYEAR=2005
DGENRE=Karaoke Country
TTITLE0=Big and Rich - Save A Horse , Ride A Cowboy (M)
TTITLE1=Tim McGraw - Live Like Were Dying (M)
TTITLE2=Toby Keith - I Love This Bar (M)
TTITLE3=Alan Jackson - It's Five O'Clock Somewhere (M)
TTITLE4=Keith Urban - Days Go By (M)
TTITLE5=Kenny Chesney - When The Sun Goes Down (M)
TTITLE6=Mark Wills - 19 Somethin' (M)
TTITLE7=Toby Keith - Beer For My Horses (M)
TTITLE8=Big and Rich - Save A Horse , Ride A Cowboy (M)
TTITLE9=Tim McGraw - Live Like Were Dying (M)
TTITLE10=Toby Keith - I Love This Bar (M)
TTITLE11=Alan Jackson - It's Five O'Clock Somewhere (M)
TTITLE12=Keith Urban - Days Go By (M)
TTITLE13=Kenny Chesney - When The Sun Goes Down (M)
TTITLE14=Mark Wills - 19 Somethin' (M)
TTITLE15=Toby Keith - Beer For My Horses (M)
EXTD=
EXTT0=
EXTT1=
EXTT2=
EXTT3=
EXTT4=
EXTT5=
EXTT6=
EXTT7=
EXTT8=
EXTT9=
EXTT10=
EXTT11=
EXTT12=
EXTT13=
EXTT14=
EXTT15=
PLAYORDER=
